# xmcd CD database file
#
# Track frame offsets:
#	150
#	18127
#	38673
#	58399
#	88682
#	114104
#	126908
#	150621
#	176988
#	195959
#
# Disc length: 2961 seconds
#
# Revision: 0
# Processed by: cddbd v1.5.2PL0 Copyright (c) Steve Scherf et al.
# Submitted via: CDex 1.51
#
DISCID=790b8f0a
DTITLE=Menu - Jan and Jasper Soffers - Dutch Songbook
DYEAR=2010
DGENRE=jazz
TTITLE0=Pappie loop toch niet zo snel
TTITLE1=Wat een dag
TTITLE2=Twips
TTITLE3=Margootje
TTITLE4=Ik zou je het liefste in een doosje willen doen
TTITLE5=Veel mooier dan het mooiste schilderij
TTITLE6=De veerpont
TTITLE7=Net als toen
TTITLE8=Het laatste wonder
TTITLE9=Wat voor weer zou het zijn in Den Haag
EXTD=YEAR: 2010
EXTT0=
EXTT1=
EXTT2=
EXTT3=
EXTT4=
EXTT5=
EXTT6=
EXTT7=
EXTT8=
EXTT9=
PLAYORDER=
